<?xml version="1.0" encoding="utf-8"?>
<svg width="131" height="40" viewBox="0 0.761 107.743 35.952" xmlns="http://www.w3.org/2000/svg" xmlns:xlink="http://www.w3.org/1999/xlink">
  <defs>
    <linearGradient id="gradient-1" x1="4.66832" y1="24.1098" x2="34.1078" y2="13.9886" gradientUnits="userSpaceOnUse" gradientTransform="matrix(1, 0, 0, 1, 81.112352, 101.864648)">
      <stop stop-color="#F89E00"/>
      <stop offset="1" stop-color="#DA2F68"/>
    </linearGradient>
    <linearGradient id="gradient-2" x1="35.4961" y1="26.2198" x2="124.453" y2="23.9271" gradientUnits="userSpaceOnUse" gradientTransform="matrix(2.787545, -0.510455, 0.50294, 2.706296, 62.689499, 87.294296)">
      <stop stop-color="#F89E00"/>
      <stop offset="1" stop-color="#DA2F68"/>
    </linearGradient>
    <linearGradient id="color-1-0" gradientUnits="userSpaceOnUse" x1="248.037" y1="218.801" x2="248.037" y2="240.601" xlink:href="#color-1"/>
    <linearGradient id="color-1">
      <stop style="stop-color: #da4453;" offset="0"/>
      <stop style="stop-color: #89216b;" offset="1"/>
    </linearGradient>
  </defs>
  <g transform="matrix(0.235253, 0, 0, 0.216909, -3.894825, -12.409138)" style="">
    <circle cx="98.612" cy="121.365" r="13.5" fill="url(#gradient-1)" style="" transform="matrix(5.125148, 0, 0, 5.536416, -409.265076, -527.911194)"/>
    <path d="M 67.832 111.405 C 84.229 104.595 100.586 97.805 116.984 90.996 C 117.847 96.517 118.699 101.985 119.558 107.512 C 106.754 112.824 93.971 118.136 81.188 123.441 C 81.192 123.474 81.196 123.513 81.196 123.546 L 120.778 123.546 C 120.787 123.787 120.798 123.976 120.798 124.178 C 120.798 138.434 120.802 152.704 120.794 166.961 C 120.79 174.929 116.835 181.693 111.977 182.064 C 111.503 182.103 111.028 182.123 110.557 182.123 C 100.222 182.129 89.883 182.129 79.548 182.123 C 76.966 182.123 74.71 180.696 72.865 177.741 C 71.187 175.052 70.237 171.759 70.092 167.892 C 70.06 167.123 70.052 166.349 70.052 165.574 C 70.048 152.965 70.045 140.348 70.057 127.738 C 70.06 126.423 69.97 125.16 69.766 123.884 C 69.119 119.894 68.51 115.89 67.89 111.893 C 67.871 111.756 67.859 111.619 67.832 111.405 Z M 72.446 140.648 L 72.446 141.311 C 72.446 149.827 72.446 158.348 72.45 166.864 C 72.45 167.325 72.473 167.794 72.516 168.256 C 73.062 174.148 75.961 178.217 79.61 178.217 C 90.072 178.217 100.532 178.217 110.989 178.217 C 111.275 178.217 111.566 178.19 111.848 178.158 C 115.584 177.715 118.401 172.762 118.401 166.648 C 118.401 158.231 118.401 149.814 118.401 141.403 L 118.401 140.648 L 72.446 140.648 Z M 79.768 127.471 C 79.846 127.68 79.893 127.817 79.948 127.947 C 81.121 130.72 82.302 133.48 83.472 136.266 C 83.609 136.585 83.742 136.715 83.985 136.715 C 85.395 136.696 86.802 136.702 88.211 136.702 C 88.317 136.702 88.423 136.677 88.545 136.663 C 88.518 136.553 88.509 136.488 88.49 136.442 C 87.27 133.552 86.05 130.655 84.813 127.777 C 84.739 127.608 84.551 127.491 84.413 127.484 C 83.652 127.458 82.891 127.471 82.13 127.471 C 81.361 127.471 80.592 127.471 79.768 127.471 Z M 99.907 136.702 C 99.822 136.468 99.775 136.324 99.72 136.194 C 98.542 133.422 97.358 130.655 96.188 127.868 C 96.055 127.563 95.921 127.464 95.698 127.464 C 94.274 127.478 92.853 127.471 91.428 127.471 C 91.335 127.471 91.244 127.491 91.107 127.497 C 91.174 127.673 91.209 127.771 91.248 127.868 C 92.332 130.427 93.445 132.953 94.481 135.564 C 94.851 136.494 95.254 136.774 95.906 136.728 C 97.213 136.644 98.523 136.702 99.904 136.702 L 99.907 136.702 Z M 102.423 127.471 C 102.501 127.686 102.549 127.823 102.603 127.953 C 103.781 130.726 104.965 133.493 106.131 136.273 C 106.272 136.605 106.414 136.715 106.649 136.715 C 108.046 136.696 109.443 136.702 110.844 136.702 C 110.949 136.702 111.059 136.683 111.2 136.663 C 111.157 136.526 111.138 136.436 111.106 136.358 C 109.898 133.499 108.689 130.635 107.469 127.79 C 107.394 127.615 107.207 127.491 107.073 127.484 C 106.264 127.458 105.452 127.471 104.64 127.471 C 103.922 127.471 103.2 127.471 102.423 127.471 Z M 109.69 107.557 C 109.607 107.414 109.576 107.355 109.54 107.303 C 107.928 105.006 106.315 102.707 104.695 100.423 C 104.617 100.311 104.448 100.259 104.338 100.305 C 102.891 100.891 101.442 101.497 99.994 102.095 C 99.943 102.122 99.892 102.167 99.759 102.252 C 99.873 102.381 99.94 102.434 99.994 102.512 C 101.379 104.471 102.788 106.379 104.126 108.411 C 104.679 109.256 105.166 109.549 105.919 109.159 C 107.135 108.528 108.391 108.098 109.69 107.557 Z M 87.725 116.678 C 87.667 116.547 87.643 116.476 87.607 116.43 C 86.022 114.185 84.429 111.945 82.855 109.679 C 82.66 109.4 82.506 109.36 82.263 109.465 C 81.082 109.973 79.901 110.441 78.72 110.929 C 78.446 111.047 78.175 111.171 77.833 111.32 C 78.218 111.873 78.555 112.349 78.888 112.824 C 80.171 114.653 81.451 116.482 82.741 118.299 C 82.855 118.455 83.056 118.592 83.189 118.539 C 84.688 117.947 86.179 117.322 87.725 116.678 Z M 88.851 106.73 C 88.894 106.854 88.902 106.9 88.918 106.926 C 90.538 109.236 92.155 111.548 93.787 113.839 C 93.893 113.983 94.112 114.015 94.258 113.956 C 95.627 113.416 96.985 112.843 98.35 112.277 C 98.46 112.232 98.57 112.16 98.728 112.082 C 97.114 109.791 95.541 107.584 93.991 105.331 C 93.666 104.856 93.379 104.758 92.99 104.999 C 92.728 105.161 92.441 105.233 92.163 105.344 C 91.067 105.806 89.973 106.262 88.851 106.73 Z M 72.465 136.67 L 77.193 136.67 C 77.193 136.592 77.198 136.546 77.186 136.52 C 75.946 133.578 74.702 130.642 73.45 127.706 C 73.403 127.595 73.301 127.491 73.219 127.484 C 72.976 127.452 72.729 127.471 72.465 127.471 L 72.465 136.67 Z M 72.128 123.155 C 73.685 122.504 75.204 121.872 76.825 121.202 C 76.687 121.033 76.613 120.955 76.546 120.863 C 75.055 118.754 73.561 116.639 72.069 114.523 C 71.571 113.819 71.391 113.787 70.751 114.34 C 71.206 117.257 71.661 120.186 72.128 123.155 Z M 113.739 127.497 C 114.963 130.375 116.164 133.141 117.318 135.96 C 117.604 136.663 117.914 136.839 118.377 136.637 L 118.377 127.491 L 113.739 127.491 L 113.739 127.497 Z M 115.245 95.761 C 113.747 96.386 112.287 96.998 110.827 97.603 L 110.796 97.78 C 110.859 97.845 110.929 97.897 110.985 97.975 C 112.471 100.071 113.967 102.141 115.422 104.289 C 115.81 104.856 116.137 105.064 116.624 104.595 C 116.168 101.672 115.708 98.736 115.245 95.761 Z" fill="white" style=""/>
    <path d="M 89.563 144.759 C 89.645 144.824 89.755 144.895 89.861 144.993 C 93.011 147.955 96.158 150.924 99.308 153.886 C 99.882 154.426 100.45 154.966 101.024 155.507 C 101.456 155.916 101.456 156.464 101.02 156.873 C 97.818 159.894 94.613 162.908 91.411 165.929 C 90.892 166.417 90.378 166.905 89.857 167.387 C 89.413 167.804 89.124 167.543 89.124 166.723 C 89.119 159.692 89.124 152.661 89.119 145.631 C 89.119 145.168 89.202 144.837 89.563 144.759 Z" fill="white" style=""/>
    <path fill-rule="evenodd" clip-rule="evenodd" d="M 357.323 125.765 L 357.323 108.151 L 371.158 108.151 L 371.158 125.765 L 357.323 125.765 Z M 340.952 125.765 L 356.037 103.117 L 334.192 108.151 L 327.722 125.765 L 340.952 125.765 Z M 325.698 131.27 L 338.337 131.27 L 329.176 150.539 L 318.279 150.539 L 309.551 131.27 L 322.717 131.27 L 324.192 135.366 L 325.698 131.27 Z M 320.733 125.765 L 314.387 108.151 L 299.081 108.151 L 307.058 125.765 L 320.733 125.765 Z M 296.14 125.765 C 295.706 122.921 294.723 120.323 293.204 117.969 C 291.068 114.669 288.128 112.062 284.382 110.147 C 280.691 108.231 276.453 107.273 271.669 107.273 C 266.884 107.273 262.616 108.231 258.87 110.147 C 255.179 112.062 252.238 114.669 250.05 117.969 C 248.526 120.323 247.547 122.921 247.113 125.765 L 261.361 125.765 C 261.574 125.017 261.868 124.306 262.244 123.638 C 263.165 121.933 264.433 120.604 266.048 119.646 C 267.718 118.688 269.594 118.21 271.669 118.21 C 273.746 118.21 275.589 118.688 277.204 119.646 C 278.817 120.604 280.085 121.933 281.009 123.638 C 281.383 124.306 281.676 125.017 281.889 125.765 L 296.14 125.765 Z M 296.323 131.27 L 282.212 131.27 C 282.039 132.615 281.637 133.851 281.009 134.973 C 280.085 136.622 278.817 137.926 277.204 138.885 C 275.589 139.843 273.746 140.322 271.669 140.322 C 269.594 140.322 267.718 139.843 266.048 138.885 C 264.433 137.926 263.165 136.622 262.244 134.973 C 261.614 133.851 261.215 132.615 261.039 131.27 L 246.928 131.27 C 247.212 134.734 248.249 137.858 250.05 140.641 C 252.238 143.939 255.179 146.548 258.87 148.465 C 262.616 150.381 266.884 151.338 271.669 151.338 C 276.453 151.338 280.691 150.381 284.382 148.465 C 288.128 146.548 291.068 143.939 293.204 140.641 C 295.003 137.858 296.041 134.734 296.323 131.27 Z M 357.323 131.27 L 371.158 131.27 L 371.158 150.539 L 357.323 150.539 L 357.323 131.27 Z M 364.241 99.769 C 361.648 99.769 359.599 99.21 358.101 98.092 C 356.66 96.92 354.861 94.977 355.94 93.142 C 357.762 90.044 350.429 86.824 345.141 86.4 C 339.018 85.91 355.417 81.725 365.417 86.371 C 367.565 87.369 366.386 86.636 368.489 87.919 C 370.048 88.87 372.455 91.068 372.455 93.142 C 372.455 95.111 371.705 96.708 370.204 97.933 C 368.766 99.155 366.777 99.769 364.241 99.769 Z M 175.597 150.539 L 175.597 94.66 L 188.741 94.66 L 206.086 120.717 L 223.679 94.66 L 236.305 94.66 L 236.305 150.539 L 222.037 150.539 L 222.037 133.137 C 222.037 128.347 222.149 124.036 222.382 120.206 C 222.465 119.085 222.565 117.965 222.677 116.849 L 208.633 136.969 L 202.924 136.969 L 189.23 117.075 C 189.307 117.979 189.378 118.89 189.433 119.806 C 189.72 123.53 189.866 127.972 189.866 133.137 L 189.866 150.539 L 175.597 150.539 Z" fill="url(#gradient-2)" style=""/>
    <path d="M 90.933 282.421 Q 90.933 282.916 90.505 283.083 Q 90.218 283.19 86.364 283.478 Q 86.451 284.066 87.013 284.481 Q 87.548 284.876 88.164 284.876 Q 89.221 284.876 90.104 284.193 Q 90.211 284.107 90.318 284.02 Q 90.371 284.02 90.388 284.033 Q 90.405 284.046 90.639 284.498 Q 90.873 284.949 90.873 284.983 Q 90.873 285.023 90.766 285.137 Q 89.783 286.18 88.244 286.18 Q 86.692 286.18 85.769 285.254 Q 84.846 284.327 84.846 282.782 Q 84.846 281.404 85.729 280.38 Q 86.659 279.317 88.01 279.317 Q 89.268 279.317 90.11 280.24 Q 90.933 281.136 90.933 282.421 Z M 89.341 282.013 Q 89.341 281.457 88.903 281.029 Q 88.465 280.601 87.916 280.601 Q 87.301 280.601 86.823 281.096 Q 86.344 281.591 86.344 282.207 Q 86.344 282.347 86.585 282.347 Q 87.575 282.347 88.953 282.146 Q 89.341 282.093 89.341 282.013 Z" transform="matrix(11.39891, 0, 0, 7.037624, -591.411194, -1862.370972)" style="fill: rgb(206, 73, 101); white-space: pre;"/>
    <polygon style="fill: rgb(206, 73, 101);" points="376.678 131.012 246.364 129.67 376.114 124.3" transform="matrix(0.999848, 0.017452, -0.017452, 0.999848, 2.275296, -5.417223)"/>
    <path d="M 230.566 223.095 L 229.254 224.425 L 229.254 234.254 L 230.432 235.373 L 226.029 235.373 L 227.36 234.254 L 227.36 227.813 L 224.326 236.158 L 223.407 236.158 L 223.33 235.9 L 224.163 235.9 L 227.36 226.999 L 227.36 225.535 L 223.799 235.364 L 223.129 235.364 L 220.507 227.64 L 220.507 232.703 Q 220.507 233.718 220.641 234.139 Q 220.775 234.56 221.273 235.067 L 222.134 236.158 L 217.129 236.158 L 216.957 235.9 L 221.656 235.9 L 221.302 235.373 L 217.033 235.373 L 217.234 235.268 Q 218.296 234.684 218.636 234.086 Q 218.976 233.488 218.976 232.196 L 218.976 224.281 L 217.713 223.095 L 222.661 223.095 L 221.273 224.348 L 223.981 232.359 L 224.326 231.526 L 221.876 224.425 L 223.129 223.496 L 223.33 223.659 L 222.134 224.501 L 224.412 231.172 L 226.881 224.348 L 225.713 223.095 Z M 219.732 225.363 L 219.732 232.234 Q 219.732 233.813 220.033 234.407 Q 220.335 235 221.282 235.268 L 221.196 235.124 Q 220.258 234.474 220.258 233.249 L 220.258 232.54 L 220.258 226.884 Z M 231.102 223.841 L 230.02 224.616 L 230.02 234.263 L 231.685 236.158 L 226.603 236.158 L 226.469 235.9 L 231.102 235.9 L 229.771 234.397 L 229.771 224.454 L 230.901 223.678 Z M 240.871 223.095 L 239.876 224.224 L 241.445 228.396 L 241.828 228.186 L 240.412 224.415 L 241.426 223.248 L 241.675 223.353 L 240.708 224.473 L 242.048 228.042 Q 242.163 227.956 242.182 227.937 L 242.498 227.669 Q 242.785 227.439 242.862 227.344 Q 243.111 228.435 243.627 229.296 Q 243.35 229.277 243.225 229.277 Q 242.316 229.277 241.895 229.564 L 243.627 234.263 L 245.063 235.373 L 240.23 235.373 L 241.551 234.263 L 240.488 231.469 Q 239.436 232.531 238.871 233.488 L 238.651 233.43 Q 239.215 232.493 240.335 231.335 L 240.412 231.239 L 240.23 230.818 Q 239.091 231.765 238.345 233.019 L 238.172 232.741 Q 237.675 231.947 236.899 230.933 L 236.804 230.818 Q 236.067 232.454 236.067 233.478 Q 236.067 234.081 236.273 234.498 Q 236.478 234.914 237.263 235.89 Q 237.33 235.976 237.474 236.158 L 232.306 236.158 L 232.114 235.9 L 236.986 235.9 L 236.823 235.699 Q 236.191 234.933 235.995 234.507 Q 235.799 234.081 235.799 233.507 Q 235.799 232.531 236.593 230.598 L 236.172 230.157 Q 236.048 230.464 235.856 231.057 L 235.54 232.033 Q 235.282 232.818 235.282 233.335 Q 235.282 233.871 235.464 234.225 Q 235.646 234.579 236.23 235.191 Q 236.287 235.249 236.402 235.373 L 231.617 235.373 Q 232.985 234.665 233.784 233.469 Q 234.583 232.272 235.368 229.775 L 235.406 229.641 Q 234.899 229.21 233.942 229.114 Q 234.469 228.33 234.756 227.478 Q 234.89 227.602 234.918 227.631 L 235.349 228.033 Q 235.569 228.243 235.875 228.463 L 236.048 228.042 L 235.933 227.947 Q 235.454 227.526 235.129 227.267 L 235.043 227.2 L 235.196 226.99 Q 235.703 227.325 236.172 227.765 L 237.474 224.186 L 236.459 223.095 Z M 238.507 226.167 L 237.455 228.942 Q 237.541 229.038 237.55 229.057 L 237.943 229.497 Q 238.258 229.842 238.747 230.569 L 238.842 230.713 Q 239.254 230.196 239.818 229.688 Z M 238.077 225.056 L 236.555 229.076 Q 237.282 229.822 237.809 230.55 L 238.249 231.162 Q 238.258 231.172 238.345 231.287 Q 238.431 231.201 238.44 231.181 L 238.574 231.019 Q 238.603 230.98 238.68 230.894 Q 238.01 229.861 237.12 229.028 L 238.345 225.793 Z M 243.704 227.803 Q 243.914 228.664 244.757 230.167 Q 244.546 230.138 244.517 230.138 L 243.742 230.071 Q 243.216 230.023 242.977 230.023 Q 242.938 230.023 242.785 230.033 L 244.383 234.273 L 246.518 236.158 L 240.976 236.158 L 240.795 235.9 L 245.876 235.9 L 244.154 234.378 L 242.45 229.87 Q 242.776 229.784 243.197 229.784 Q 243.714 229.784 244.345 229.87 L 244.23 229.66 Q 243.618 228.53 243.407 227.621 Z M 257.763 223.095 Q 256.672 223.659 256.356 224.128 Q 255.878 224.855 255.878 226.32 L 255.878 226.942 L 255.878 235.373 L 254.26 235.373 L 249.743 226.607 L 249.743 231.804 L 249.734 232.234 L 249.849 233.612 Q 250.04 234.569 250.719 235.029 L 250.796 235.096 Q 249.475 234.655 249.475 232.272 L 249.485 231.373 L 249.485 226.138 L 248.968 225.133 L 248.968 230.646 Q 248.968 233.268 249.313 234.081 Q 249.657 234.895 250.93 235.268 L 251.763 236.158 L 246.575 236.158 L 246.422 235.9 L 251.217 235.9 L 250.719 235.373 L 246.26 235.373 Q 247.427 234.952 247.81 234.244 Q 248.193 233.536 248.193 231.813 L 248.193 224.157 L 246.92 223.095 L 251.763 223.095 L 250.404 224.004 L 255.036 233.038 L 255.036 231.89 L 251.064 224.157 L 252.404 223.248 L 252.586 223.43 L 251.399 224.233 L 255.036 231.373 L 255.036 226.904 L 255.036 226.396 Q 255.036 224.731 254.763 224.171 Q 254.49 223.611 253.418 223.095 Z M 258.098 223.803 L 257.926 224.09 Q 257.189 224.262 256.926 224.726 Q 256.663 225.19 256.663 226.291 L 256.663 236.158 L 254.605 236.158 L 254.481 235.9 L 256.404 235.9 L 256.404 226.387 Q 256.404 225.037 256.754 224.506 Q 257.103 223.975 258.098 223.803 Z M 258.614 223.095 L 263.151 223.095 L 261.868 224.396 L 261.868 234.359 L 263.074 235.373 L 258.614 235.373 L 259.945 234.273 L 259.945 224.291 Z M 263.581 223.64 L 262.605 224.607 L 262.605 234.359 L 264.213 236.158 L 259.237 236.158 L 258.997 235.9 L 263.648 235.9 L 262.337 234.455 L 262.337 224.521 L 263.419 223.449 Z M 273.467 223.095 L 272.472 224.224 L 274.042 228.396 L 274.425 228.186 L 273.008 224.415 L 274.023 223.248 L 274.271 223.353 L 273.305 224.473 L 274.645 228.042 Q 274.759 227.956 274.779 227.937 L 275.094 227.669 Q 275.382 227.439 275.458 227.344 Q 275.707 228.435 276.224 229.296 Q 275.946 229.277 275.822 229.277 Q 274.913 229.277 274.491 229.564 L 276.224 234.263 L 277.659 235.373 L 272.826 235.373 L 274.147 234.263 L 273.085 231.469 Q 272.032 232.531 271.467 233.488 L 271.247 233.43 Q 271.812 232.493 272.932 231.335 L 273.008 231.239 L 272.826 230.818 Q 271.687 231.765 270.941 233.019 L 270.769 232.741 Q 270.271 231.947 269.496 230.933 L 269.4 230.818 Q 268.663 232.454 268.663 233.478 Q 268.663 234.081 268.869 234.498 Q 269.075 234.914 269.859 235.89 Q 269.926 235.976 270.07 236.158 L 264.902 236.158 L 264.711 235.9 L 269.582 235.9 L 269.419 235.699 Q 268.788 234.933 268.591 234.507 Q 268.395 234.081 268.395 233.507 Q 268.395 232.531 269.19 230.598 L 268.768 230.157 Q 268.644 230.464 268.453 231.057 L 268.137 232.033 Q 267.878 232.818 267.878 233.335 Q 267.878 233.871 268.06 234.225 Q 268.242 234.579 268.826 235.191 Q 268.883 235.249 268.998 235.373 L 264.213 235.373 Q 265.582 234.665 266.381 233.469 Q 267.18 232.272 267.965 229.775 L 268.003 229.641 Q 267.496 229.21 266.539 229.114 Q 267.065 228.33 267.352 227.478 Q 267.486 227.602 267.515 227.631 L 267.945 228.033 Q 268.166 228.243 268.472 228.463 L 268.644 228.042 L 268.529 227.947 Q 268.051 227.526 267.725 227.267 L 267.639 227.2 L 267.792 226.99 Q 268.3 227.325 268.768 227.765 L 270.07 224.186 L 269.056 223.095 Z M 271.104 226.167 L 270.051 228.942 Q 270.137 229.038 270.147 229.057 L 270.539 229.497 Q 270.855 229.842 271.343 230.569 L 271.439 230.713 Q 271.85 230.196 272.415 229.688 Z M 270.673 225.056 L 269.151 229.076 Q 269.879 229.822 270.405 230.55 L 270.845 231.162 Q 270.855 231.172 270.941 231.287 Q 271.027 231.201 271.037 231.181 L 271.171 231.019 Q 271.199 230.98 271.276 230.894 Q 270.606 229.861 269.716 229.028 L 270.941 225.793 Z M 276.3 227.803 Q 276.511 228.664 277.353 230.167 Q 277.142 230.138 277.114 230.138 L 276.339 230.071 Q 275.812 230.023 275.573 230.023 Q 275.535 230.023 275.382 230.033 L 276.98 234.273 L 279.114 236.158 L 273.573 236.158 L 273.391 235.9 L 278.473 235.9 L 276.75 234.378 L 275.047 229.87 Q 275.372 229.784 275.793 229.784 Q 276.31 229.784 276.941 229.87 L 276.827 229.66 Q 276.214 228.53 276.004 227.621 Z" transform="matrix(4.708022, 0, 0, 2.206016, -853.831543, -331.570953)" style="fill: rgb(248, 158, 1); fill-opacity: 0.88; paint-order: fill; stroke: url(#color-1-0); stroke-opacity: 0.87; stroke-width: 0.578533px; white-space: pre;"/>
  </g>
</svg>